# xmcd CD database file
#
# Track frame offsets:
#	183
#	12160
#	22680
#	35910
#	50993
#	66065
#	79455
#	96390
#	108595
#	126195
#	140713
#	150508
#	162805
#	176493
#	191248
#
# Disc length: 2696 seconds
#
# Revision: 1
# Processed by: cddbd v1.5.1PL0 Copyright (c) Steve Scherf et al.
# Submitted via: CDex 1.50Beta5
#
DISCID=d20a860f
DTITLE=Tom Astor - Guten Morgen Deutschland
DYEAR=1900
DGENRE=
TTITLE0=Guten Morgen Deutschland
TTITLE1=Highway Helden
TTITLE2=Partner fahr rechts
TTITLE3=Sonntagmorgen
TTITLE4=Halt Abstand Junge
TTITLE5=Der kleine Trucker
TTITLE6=Meine Antwort ist die groﬂe Autobahn
TTITLE7=Radwechsel
TTITLE8=Mein Freund Charly
TTITLE9=Devil
TTITLE10=Sicht weg - Gas weg
TTITLE11=Verdammte Radarfalle ( Lady Trucker )
TTITLE12=Krawattentrucker Erwin
TTITLE13=Geistertruck
TTITLE14=Panamerican Highway
EXTD=
EXTT0=
EXTT1=
EXTT2=
EXTT3=
EXTT4=
EXTT5=
EXTT6=
EXTT7=
EXTT8=
EXTT9=
EXTT10=
EXTT11=
EXTT12=
EXTT13=
EXTT14=
PLAYORDER=
